<svg width="62" height="20" viewBox="0 0 62 20" fill="none" xmlns="http://www.w3.org/2000/svg">
<path d="M9.834 0.079895C9.75377 1.42855 9.72983 2.78471 9.58016 4.12586C9.26765 6.94327 7.91106 8.46582 5.24936 8.99502C4.29747 9.18393 3.31684 9.22397 2.34699 9.30529C1.91595 9.34157 1.48131 9.31154 0.998779 9.31154C1.07421 7.2185 1.70641 5.37943 2.91453 3.7643C4.38847 1.79386 6.31739 0.612851 8.67377 0.197496C8.78512 0.177478 8.89049 0.119929 8.99825 0.079895C9.27723 0.079895 9.55621 0.079895 9.83519 0.079895H9.834Z" fill="white"/>
<path d="M11.1487 0.079895C11.4936 0.163717 11.8384 0.248789 12.1844 0.328858C15.9812 1.20961 19.0057 4.90777 19.1745 8.88368C19.1793 9.00628 19.1745 9.13014 19.1745 9.33531C17.1498 9.26025 15.1299 9.35908 13.2513 8.44455C11.6816 7.6814 10.9392 6.25267 10.6949 4.54622C10.5189 3.31516 10.4914 2.05909 10.3944 0.815524C10.3753 0.570314 10.3405 0.325105 10.313 0.079895C10.5908 0.079895 10.8698 0.079895 11.1487 0.079895Z" fill="white"/>
<path d="M25.8724 1.72131H33.8934V14.0806H35.1542V18.9848H32.9666V16.0974H25.9933V18.9948H23.7722V14.187C23.8045 14.162 23.8333 14.1194 23.8644 14.1169C24.8127 14.0356 24.8881 14.0506 25.0665 13.0585C25.3132 11.6923 25.506 10.3074 25.591 8.92122C25.7311 6.65553 25.7658 4.38359 25.846 2.11415C25.8508 1.99405 25.8616 1.87394 25.8724 1.72131ZM31.4807 14.0656V3.6392H28.0683C27.8192 7.12093 28.127 10.6464 27.1212 14.0656H31.4807Z" fill="white"/>
<path d="M59.6819 9.70938V5.68594H62V15.9985H59.6879V11.7549H56.5712V16.0023H54.2256V5.6897H56.5257V9.70938H59.6819Z" fill="white"/>
<path d="M52.6786 11.7311H47.0068C46.9481 13.4814 47.8366 14.3909 49.5176 14.3021C50.0289 14.2745 50.5474 14.1795 51.0407 14.0343C51.5124 13.8955 51.9554 13.6515 52.5026 13.4138C52.5026 14.0218 52.5146 14.5898 52.4919 15.1565C52.4871 15.2691 52.3733 15.413 52.2715 15.4806C50.7473 16.4789 47.105 16.7979 45.4562 14.6136C44.8276 13.7804 44.6217 12.8296 44.5403 11.8375C44.4349 10.5651 44.5235 9.29778 44.9749 8.08925C45.8849 5.65466 48.6615 4.6438 50.8335 5.95492C51.807 6.54167 52.2859 7.49874 52.4499 8.59843C52.5984 9.59679 52.6032 10.6189 52.6786 11.7324V11.7311ZM50.2193 9.86952C50.2073 8.97751 50.1953 8.12428 49.4506 7.59507C48.9106 7.21225 48.2856 7.2798 47.7719 7.68265C47.0918 8.2156 46.9625 8.99877 46.996 9.86952H50.2193Z" fill="white"/>
<path d="M9.83524 19.0761C5.5703 19.225 1.01918 15.1528 1.04552 9.91705C2.90979 9.95959 4.78124 9.90579 6.56649 10.6076C7.89434 11.1293 8.78158 12.1264 9.23058 13.5326C9.80651 15.3367 9.78256 17.2095 9.83524 19.0774V19.0761Z" fill="white"/>
<path d="M10.3047 19.0736C10.4328 17.5749 10.4795 16.1174 10.6974 14.6874C11.0901 12.1077 12.491 10.6815 14.9384 10.2261C15.5443 10.1135 16.1573 10.0234 16.7704 9.99213C17.5414 9.9521 18.3161 9.98212 19.0932 9.98212C19.4584 13.9705 15.5203 19.1862 10.3047 19.0736Z" fill="white"/>
<path d="M38.059 11.6536V9.837C38.5811 9.837 39.0744 9.85327 39.5665 9.83325C40.3843 9.80072 40.8093 9.39663 40.8392 8.65599C40.868 7.93037 40.4609 7.48124 39.6431 7.39492C38.5894 7.28357 37.6531 7.68016 36.6437 8.28067C36.6437 7.62511 36.627 7.05588 36.6569 6.49039C36.6641 6.36529 36.8162 6.20265 36.9395 6.13759C38.3272 5.40697 39.7868 5.22806 41.2847 5.65218C42.2904 5.93742 43.04 6.55044 43.1765 7.7227C43.3309 9.04633 42.8867 10.0497 41.602 10.6339C41.7145 10.6927 41.766 10.7265 41.8223 10.7465C42.7993 11.1131 43.4674 11.7474 43.5117 12.9096C43.562 14.2032 42.9777 15.3642 41.9061 15.8009C40.1807 16.504 38.441 16.4364 36.7647 15.5869C36.5767 15.4918 36.4198 15.1628 36.3899 14.9239C36.3312 14.4547 36.3731 13.9718 36.3731 13.5652C37.24 13.8079 38.083 14.0869 38.945 14.2658C39.339 14.3471 39.782 14.2883 40.1819 14.192C40.7997 14.0444 41.1182 13.5001 41.0727 12.8283C41.0272 12.1527 40.7027 11.8037 40.0071 11.7136C39.6922 11.6723 39.3725 11.6648 39.0552 11.6561C38.7403 11.6473 38.4242 11.6536 38.0602 11.6536H38.059Z" fill="white"/>
</svg>
