<svg width="37" height="22" viewBox="0 0 37 22" fill="none" xmlns="http://www.w3.org/2000/svg">
<path d="M36.7775 19.0375C36.7327 18.941 36.691 18.8611 36.6523 18.797C36.0112 17.6425 34.7863 16.2254 32.978 14.5453L32.9398 14.5069L32.9207 14.488L32.9014 14.4687H32.882C32.0613 13.6864 31.5416 13.1603 31.324 12.891C30.9258 12.378 30.8366 11.8587 31.0542 11.3326C31.208 10.9351 31.7855 10.0955 32.7855 8.81287C33.3116 8.1331 33.7282 7.58829 34.0358 7.17783C36.2546 4.22804 37.2166 2.34309 36.9214 1.52223L36.8068 1.33041C36.7298 1.21492 36.5311 1.10928 36.2108 1.01293C35.8898 0.916779 35.4796 0.900879 34.9793 0.964955L29.4392 1.00322C29.3495 0.971422 29.2213 0.974387 29.0544 1.01293C28.8876 1.05147 28.8042 1.0708 28.8042 1.0708L28.7078 1.11898L28.6313 1.17686C28.5671 1.21513 28.4966 1.28244 28.4196 1.37865C28.3429 1.47453 28.2789 1.58705 28.2277 1.71527C27.6245 3.26704 26.9387 4.70979 26.1691 6.04346C25.6945 6.83872 25.2587 7.52792 24.8607 8.11147C24.4633 8.69483 24.1298 9.12463 23.8607 9.40014C23.5912 9.67591 23.348 9.89684 23.1295 10.0637C22.9114 10.2307 22.745 10.3012 22.6297 10.2754C22.5141 10.2496 22.4053 10.224 22.3023 10.1984C22.1229 10.0829 21.9785 9.92588 21.8697 9.72712C21.7604 9.52835 21.6869 9.27818 21.6484 8.9768C21.6101 8.67522 21.5875 8.41582 21.581 8.19772C21.575 7.97989 21.5778 7.67177 21.5908 7.27424C21.6041 6.87651 21.6101 6.60741 21.6101 6.46632C21.6101 5.97891 21.6196 5.44993 21.6387 4.87925C21.6581 4.30856 21.6738 3.85639 21.6869 3.52327C21.7 3.18982 21.7061 2.83704 21.7061 2.46511C21.7061 2.09319 21.6834 1.80151 21.6387 1.58981C21.5945 1.37838 21.5266 1.17315 21.4372 0.974185C21.3473 0.775421 21.2156 0.621666 21.0429 0.512515C20.8698 0.403498 20.6546 0.316985 20.3985 0.252707C19.7187 0.0988847 18.8531 0.0156736 17.8013 0.00273713C15.416 -0.0228663 13.8834 0.131158 13.2037 0.464609C12.9344 0.605495 12.6907 0.797992 12.4728 1.04149C12.2419 1.32374 12.2097 1.47776 12.3764 1.5031C13.146 1.61838 13.6908 1.89416 14.0114 2.33016L14.127 2.56119C14.2169 2.72788 14.3066 3.023 14.3964 3.44613C14.4861 3.86926 14.544 4.33733 14.5694 4.85007C14.6335 5.78642 14.6335 6.58794 14.5694 7.2547C14.5052 7.92174 14.4446 8.44102 14.3867 8.81294C14.3288 9.18486 14.2423 9.48624 14.127 9.71701C14.0114 9.94785 13.9346 10.0889 13.896 10.1401C13.8575 10.1913 13.8255 10.2236 13.8 10.2363C13.6333 10.3002 13.4599 10.3327 13.2805 10.3327C13.1008 10.3327 12.8829 10.2428 12.6265 10.0632C12.3701 9.88357 12.104 9.63683 11.8283 9.32258C11.5525 9.00827 11.2415 8.56904 10.8951 8.00482C10.549 7.4406 10.1898 6.77376 9.81793 6.00431L9.51021 5.44629C9.31785 5.08731 9.05508 4.56459 8.72163 3.87862C8.38797 3.19238 8.09306 2.52858 7.83669 1.88735C7.73421 1.61804 7.58025 1.41301 7.37509 1.27193L7.27881 1.21405C7.2148 1.16284 7.11205 1.10847 6.97109 1.05052C6.82994 0.992646 6.68265 0.951141 6.52863 0.925605L1.25776 0.963876C0.719142 0.963876 0.353687 1.0859 0.161257 1.3296L0.0842444 1.44488C0.0457719 1.50909 0.0263672 1.61164 0.0263672 1.7528C0.0263672 1.89389 0.0648397 2.06705 0.141852 2.27208C0.911302 4.08049 1.74806 5.82455 2.65213 7.50454C3.5562 9.18453 4.34182 10.5378 5.00852 11.5632C5.67536 12.5892 6.35506 13.5577 7.04763 14.4679C7.74021 15.3785 8.19864 15.9621 8.42294 16.2185C8.64751 16.4753 8.82391 16.6673 8.95213 16.7955L9.43313 17.2572C9.74091 17.565 10.1929 17.9337 10.7892 18.3632C11.3857 18.793 12.0461 19.2162 12.7707 19.6333C13.4954 20.0497 14.3385 20.3896 15.3004 20.6524C16.2622 20.9155 17.1984 21.0211 18.109 20.9702H20.3213C20.7699 20.9314 21.1098 20.7904 21.3409 20.5469L21.4174 20.4504C21.4689 20.3739 21.5171 20.255 21.5615 20.095C21.6066 19.9347 21.6289 19.7581 21.6289 19.566C21.6158 19.0146 21.6578 18.5177 21.7537 18.0753C21.8496 17.6331 21.9589 17.2996 22.0811 17.075C22.2032 16.8507 22.3411 16.6613 22.4945 16.5078C22.6483 16.354 22.7578 16.2608 22.8221 16.2288C22.886 16.1965 22.937 16.1746 22.9755 16.1615C23.2832 16.0589 23.6455 16.1582 24.0627 16.4599C24.4795 16.7613 24.8705 17.1334 25.2362 17.5756C25.6018 18.0183 26.0409 18.515 26.5538 19.0663C27.067 19.6179 27.5158 20.0278 27.9003 20.2976L28.2849 20.5284C28.5418 20.6824 28.8752 20.8235 29.2857 20.9517C29.6954 21.0799 30.0544 21.1119 30.3627 21.0479L35.2871 20.9711C35.7741 20.9711 36.1531 20.8904 36.422 20.7304C36.6913 20.5701 36.8514 20.3935 36.903 20.2014C36.9545 20.0091 36.9572 19.7909 36.9127 19.547C36.8671 19.3037 36.8222 19.1336 36.7775 19.0375Z" fill="white"/>
</svg>
