<svg width="33" height="23" viewBox="0 0 33 23" fill="none" xmlns="http://www.w3.org/2000/svg">
<path d="M16.6991 22.0799C13.1814 21.969 9.83614 21.8828 6.49091 21.7534C5.77012 21.7226 5.037 21.6117 4.33469 21.4453C3.01631 21.1373 2.10453 20.3426 1.63632 19.0427C1.26052 17.9954 1.12499 16.9173 1.02642 15.8207C0.810798 13.2455 0.810798 10.6704 0.915529 8.09522C0.977135 6.64131 1.0141 5.17508 1.40222 3.76429C1.63632 2.92028 1.91971 2.09476 2.60355 1.48485C3.32434 0.837983 4.16835 0.449862 5.12941 0.406738C7.76617 0.277364 10.3968 0.117188 13.0335 0.092545C16.5821 0.0555811 20.1367 0.104866 23.6853 0.172634C25.2193 0.203437 26.7656 0.283525 28.2873 0.480666C29.6796 0.665485 30.7207 1.44173 31.2752 2.79707C31.7003 3.83822 31.8605 4.92865 31.9529 6.03757C32.1931 8.81602 32.1993 11.5945 32.0638 14.3729C31.996 15.7837 31.9282 17.2007 31.5278 18.5745C31.0719 20.1516 30.1047 21.1928 28.4906 21.5501C27.8622 21.6856 27.2092 21.7349 26.5685 21.7595C23.2171 21.8766 19.8718 21.9813 16.6991 22.0799ZM13.2923 15.0752C16.1015 13.6213 18.88 12.1797 21.7139 10.7073C18.8861 9.22878 16.1077 7.78103 13.2923 6.30864C13.2923 9.24727 13.2923 12.1366 13.2923 15.0752Z" fill="white"/>
</svg>
